<svg xmlns:xlink="http://www.w3.org/1999/xlink" height="32" viewBox="0 0 1792 3584" width="16"
    xmlns="http://www.w3.org/2000/svg">
    <defs>
        <g id="icon">
            <path
                d="M1024 544v448q0 14-9 23t-23 9h-320q-14 0-23-9t-9-23v-64q0-14 9-23t23-9h224v-352q0-14 9-23t23-9h64q14 0 23 9t9 23zm416 352q0-148-73-273t-198-198-273-73-273 73-198 198-73 273 73 273 198 198 273 73 273-73 198-198 73-273zm224 0q0 209-103 385.5t-279.5 279.5-385.5 103-385.5-103-279.5-279.5-103-385.5 103-385.5 279.5-279.5 385.5-103 385.5 103 279.5 279.5 103 385.5z" />
        </g>
    </defs>
    <use fill="#447e9b" x="0" y="0" xlink:href="#icon" />
    <use fill="#003366" x="0" y="1792" xlink:href="#icon" />
</svg>
